<svg width="376" height="393" viewBox="0 0 376 393" fill="none" xmlns="http://www.w3.org/2000/svg">
<path d="M319.512 68.716C355.043 108.864 384.22 183.626 373.129 237.657C362.382 290.011 312.685 306.782 266.5 333C221.482 358.555 144.573 369.52 96.5 354C44.8039 337.31 21.6127 290.616 6.10088 237.657C-9.6125 184.01 12.4435 132.864 44.6905 85.9544C76.9694 38.9978 126.287 4.69235 181.752 1.21323C235.992 -2.18902 283.727 28.2818 319.512 68.716Z" fill="white"/>
<path d="M319.512 68.716C355.043 108.864 384.22 183.626 373.129 237.657C362.382 290.011 312.685 306.782 266.5 333C221.482 358.555 144.573 369.52 96.5 354C44.8039 337.31 21.6127 290.616 6.10088 237.657C-9.6125 184.01 12.4435 132.864 44.6905 85.9544C76.9694 38.9978 126.287 4.69235 181.752 1.21323C235.992 -2.18902 283.727 28.2818 319.512 68.716Z" fill="url(#paint0_linear)"/>
<path d="M243.063 337.221C248.091 337.246 254.261 347.835 260.138 349.515C266.325 351.271 266.861 356.9 267.169 358.252C268.708 366.511 269.781 376.719 270.392 384.148C270.546 385.124 270.933 384.976 270.933 384.976C270.933 384.976 271.397 385.204 271.475 384.079C271.946 376.805 272.807 366.907 274.826 358.516C276.535 351.398 282.563 339.813 291.072 339.856C299.58 339.899 299.033 332.493 303.763 327.537C311.841 319.075 307.5 298 307.5 298L243.063 337.221Z" fill="#F2F1F9"/>
<path d="M238.343 347.573C240.278 347.582 243.527 350.379 246.546 350.394C249.256 350.408 249.637 356.122 250.175 360.558C251.249 370.409 252.011 382.588 252.544 391.609C252.62 392.812 252.93 392.588 252.93 392.588C252.93 392.588 253.24 392.815 253.318 391.538C253.636 382.822 254.19 370.95 255.593 360.886C256.061 357.431 256.378 350.368 261.1 350.317C264.042 350.331 267.451 347.643 271.012 347.661L279.599 342.58L258.899 329.669L239.399 338.669L238.343 347.573Z" fill="#F2F1F9"/>
<path d="M211 353.236C220.077 352.631 224.314 352.833 223.778 357.089C224.547 361.521 224.32 373.49 227.354 373.562C227.431 374.088 228.676 373.703 228.676 373.703C228.676 373.703 228.908 373.855 228.909 373.179C229.145 369.202 229.614 363.799 230.547 359.3C230.858 357.875 231.866 356.078 234.805 356.093C237.823 356.108 235.787 351.923 239.908 350.226C244.03 348.529 248.397 349.83 248.397 349.83L239.399 338.669L211 353.236Z" fill="#F2F1F9"/>
<defs>
<linearGradient id="paint0_linear" x1="200.066" y1="268.851" x2="-19.611" y2="145.577" gradientUnits="userSpaceOnUse">
<stop stop-color="#F1F0F8"/>
<stop offset="1" stop-color="white"/>
</linearGradient>
</defs>
</svg>
