<svg width="366" height="391" viewBox="0 0 366 391" fill="none" xmlns="http://www.w3.org/2000/svg">
<path d="M264.57 322.808C220.218 345.828 169.821 348.87 122.445 332.978C71.7365 315.968 20.5511 286.889 4.96445 235.724C-10.5246 184.881 18.1545 134.151 48.6032 90.5864C78.2665 48.1456 115.937 7.29895 167.547 3.1101C219.253 -1.08655 263.328 32.9159 299.362 70.2338C336.339 108.527 371.934 154.52 364.67 207.254C357.354 260.368 312.157 298.108 264.57 322.808Z" fill="url(#paint0_linear)"/>
<path d="M164.165 344.214C169.192 344.24 173.312 344.616 179.189 346.296C185.375 348.053 185.911 353.681 186.219 355.033C187.758 363.293 188.831 373.5 189.443 380.93C189.597 381.906 189.984 381.757 189.984 381.757C189.984 381.757 190.448 381.985 190.526 380.86C190.997 373.586 191.858 363.688 193.877 355.297C195.585 348.179 203.447 342.98 211.956 343.023C220.464 343.066 227.108 334.174 227.108 334.174L164.165 344.214Z" fill="#F2F1F9"/>
<path d="M158.457 344.258C160.392 344.268 163.641 347.065 166.66 347.08C169.369 347.093 169.751 352.807 170.288 357.244C171.363 367.095 172.125 379.273 172.658 388.295C172.734 389.498 173.044 389.274 173.044 389.274C173.044 389.274 173.353 389.501 173.432 388.223C173.75 379.507 174.304 367.635 175.707 357.572C176.175 354.117 176.492 347.054 181.214 347.002C184.156 347.017 187.564 344.328 191.126 344.346L199.712 339.265L161.648 337.932L158.457 344.258Z" fill="#F2F1F9"/>
<path d="M148.8 338.539C153.835 339.71 152.194 344.3 158.725 350.131C159.495 354.564 160.031 360.122 160.336 364.177C160.413 364.703 160.645 364.629 160.645 364.629C160.645 364.629 160.877 364.78 160.878 364.105C161.114 360.127 161.583 354.724 162.516 350.225C162.827 348.8 163.835 347.004 166.774 347.018C169.792 347.033 170.862 342.902 174.983 341.205L161.649 340.235L148.8 338.539Z" fill="#F2F1F9"/>
<defs>
<linearGradient id="paint0_linear" x1="114.885" y1="205.408" x2="177.688" y2="-26.4533" gradientUnits="userSpaceOnUse">
<stop stop-color="#F1F0F8"/>
<stop offset="1" stop-color="white"/>
</linearGradient>
</defs>
</svg>
