<svg width="364" height="377" viewBox="0 0 364 377" fill="none" xmlns="http://www.w3.org/2000/svg">
<path d="M362.807 170.277C364.893 223.85 352.79 280.822 309.998 315.624C268.534 349.346 211.139 345.144 158.79 336.199C107.764 327.48 52.028 310.522 24.642 268.074C-4.80782 222.425 -6.49152 164.18 15.0295 113.366C36.8301 61.8911 84.5029 25.5271 139.163 9.63116C193.877 -6.28056 253.771 -1.61261 298.908 30.8096C343.047 62.5155 360.707 116.323 362.807 170.277Z" fill="white"/>
<path d="M362.807 170.277C364.893 223.85 352.79 280.822 309.998 315.624C268.534 349.346 211.139 345.144 158.79 336.199C107.764 327.48 52.028 310.522 24.642 268.074C-4.80782 222.425 -6.49152 164.18 15.0295 113.366C36.8301 61.8911 84.5029 25.5271 139.163 9.63116C193.877 -6.28056 253.771 -1.61261 298.908 30.8096C343.047 62.5155 360.707 116.323 362.807 170.277Z" fill="url(#paint0_linear)"/>
<path d="M135.246 321.22C130.218 321.245 124.048 331.834 118.171 333.514C111.985 335.271 111.449 340.899 111.14 342.251C109.601 350.511 108.528 360.718 107.917 368.147C107.763 369.123 107.376 368.975 107.376 368.975C107.376 368.975 106.912 369.203 106.834 368.078C106.363 360.804 105.502 350.906 103.483 342.515C101.775 335.397 95.7458 323.812 87.2374 323.855C78.729 323.898 79.2761 316.492 74.5458 311.536C66.4682 303.074 62.2274 292.499 62.2274 292.499L135.246 321.22Z" fill="#F2F1F9"/>
<path d="M139.966 331.572C138.031 331.581 134.782 334.378 131.763 334.393C129.054 334.407 128.672 340.121 128.135 344.557C127.06 354.408 126.298 366.587 125.765 375.608C125.689 376.811 125.379 376.587 125.379 376.587C125.379 376.587 125.07 376.814 124.991 375.537C124.673 366.821 124.119 354.949 122.716 344.885C122.248 341.43 121.931 334.367 117.209 334.316C114.267 334.33 110.858 331.642 107.297 331.66L98.7106 326.579L136.775 325.246L139.966 331.572Z" fill="#F2F1F9"/>
<path d="M167.309 337.235C158.232 336.63 153.995 336.832 154.531 341.088C153.762 345.521 153.989 357.489 150.955 357.561C150.878 358.087 149.633 357.703 149.633 357.703C149.633 357.703 149.401 357.854 149.4 357.178C149.164 353.201 148.695 347.798 147.762 343.299C147.451 341.874 146.444 340.077 143.504 340.092C140.487 340.107 142.522 335.922 138.401 334.225C134.279 332.528 129.912 333.829 129.912 333.829L140.927 326.059L167.309 337.235Z" fill="#F2F1F9"/>
<defs>
<linearGradient id="paint0_linear" x1="143.642" y1="249.573" x2="51.642" y2="15.0735" gradientUnits="userSpaceOnUse">
<stop stop-color="#F1F0F8"/>
<stop offset="1" stop-color="white"/>
</linearGradient>
</defs>
</svg>
