<svg width="986" height="146" viewBox="0 0 986 146" fill="none" xmlns="http://www.w3.org/2000/svg">
<path d="M1 2C10.8333 10.3333 37.5 29.1 65.5 37.5C93.5 45.9 155.833 17.3333 183.5 2C202.333 15.1667 250.2 44.4 291 56C342 70.5 396 74.5 451 56C495 41.2 525.333 13.8333 535 2C556.5 22.6667 602.5 62.4 668.5 56C734.5 49.6 750.5 22 759.5 2C769.333 18.6667 801.206 63.214 825.5 88.5C850 114 896.5 120.5 933.5 98C963.1 80 963.5 76.5 985 50" stroke="white"/>
<path d="M131.779 38.586C129.725 42.7581 127.587 47.9236 127.907 50.8698C128.276 54.752 129.434 56.8092 132.784 56.7616C134.092 56.7345 135.629 56.3975 137.547 55.7912C137.816 55.6767 138.218 55.5049 138.486 55.3904C142.779 53.5581 146.12 49.2612 145.662 44.2476C145.496 41.3418 142.302 37.9212 139.465 35.5175C146.074 34.291 151.724 36.8761 152.84 42.2465C154.221 48.8863 148.497 57.1769 139.912 60.8416C131.461 64.4489 123.369 62.056 121.989 55.4162C120.79 49.6552 125.027 42.6376 131.779 38.586Z" fill="#BDD8F7"/>
<path d="M126.811 50.126C126.263 44.4588 134.123 30.9564 134.179 30.4781C134.234 29.9998 145.021 37.4865 145.57 43.1538C146.118 48.821 142.047 53.7598 136.985 55.3798C129.496 57.9357 127.36 55.7932 126.811 50.126Z" fill="#4B698C"/>
<path d="M128.614 49.5744C129.034 53.9243 130.342 56.2267 134.123 56.1646C130.365 56.3361 129.034 53.9243 128.614 49.5744Z" fill="#A12421"/>
<path d="M137.087 32.0202C136.861 32.4671 136.511 33.0839 136.139 33.5937C125.954 49.7504 130.725 54.34 132.696 56.172C129.046 56.2281 127.761 53.8674 127.38 49.7192C127.065 45.892 130.364 38.7607 132.724 34.0149C133.163 33.8261 133.747 33.5744 134.332 33.3227C135.04 32.9011 136.064 32.4606 137.087 32.0202Z" fill="#2D4C6E"/>
<path d="M132.026 32.1131C129.439 33.2912 127.243 34.3065 127.243 34.3065C127.243 34.3065 126.709 28.4947 131.864 26.0461C133.669 25.1938 134.981 25.3516 135.941 25.8569C137.73 26.9218 138.264 29.415 138.264 29.415C136.81 29.9198 134.223 31.0979 132.026 32.1131Z" fill="#486689"/>
<path d="M128.027 29.8079C127.145 32.0528 127.286 34.1866 127.286 34.1866C127.286 34.1866 127.008 32.1119 128.027 29.8079ZM132.445 25.1617C132.308 25.2208 132.308 25.2208 132.171 25.2798C130.271 26.2077 129.066 27.6047 128.314 29.026C129.066 27.6047 130.271 26.2077 132.171 25.2798C132.171 25.2798 132.308 25.2208 132.445 25.1617Z" fill="#357D3F"/>
<path d="M128.416 28.6759C128.318 28.9441 128.199 29.1087 128.101 29.377C128.058 29.1695 128.178 29.005 128.416 28.6759Z" fill="#09582E"/>
<path d="M132.19 25.7469C133.903 25.0257 135.096 25.2433 136.066 25.7607C135.519 25.8882 135.124 26.0546 134.597 26.2765C131.436 27.6079 129.404 30.2126 132.09 32.0649C129.476 33.2689 127.256 34.3065 127.256 34.3065C127.256 34.3065 127.121 32.3059 127.967 30.2005C128.059 29.956 128.17 29.8061 128.262 29.5616C128.985 28.2285 130.142 26.9179 131.967 26.0468C131.927 25.8578 132.058 25.8024 132.19 25.7469Z" fill="#224163"/>
<path d="M142.482 45.5154C142.623 45.4544 142.764 45.3934 142.764 45.3934C143.816 45.2784 144.256 46.6732 143.871 48.538C143.443 50.1949 142.387 51.7838 141.399 52.2109C141.258 52.2719 141.116 52.3329 141.116 52.3329C140.064 52.4479 139.624 51.0531 140.009 49.1883C140.416 47.4274 141.494 45.9425 142.482 45.5154Z" fill="#7796B9"/>
<path d="M425.779 73.586C423.725 77.7581 421.587 82.9236 421.907 85.8698C422.276 89.752 423.434 91.8092 426.784 91.7616C428.092 91.7345 429.629 91.3975 431.547 90.7912C431.816 90.6767 432.218 90.5049 432.486 90.3904C436.779 88.5581 440.12 84.2612 439.662 79.2476C439.496 76.3418 436.302 72.9212 433.465 70.5175C440.074 69.291 445.724 71.8761 446.84 77.2465C448.221 83.8863 442.497 92.1769 433.912 95.8416C425.461 99.4489 417.369 97.056 415.989 90.4162C414.79 84.6552 419.027 77.6376 425.779 73.586Z" fill="#B3D2F7"/>
<path d="M420.811 85.1261C420.263 79.4589 428.123 65.9565 428.179 65.4782C428.234 64.9999 439.021 72.4867 439.57 78.1539C440.118 83.8211 436.047 88.7599 430.985 90.38C423.496 92.9358 421.36 90.7933 420.811 85.1261Z" fill="#456A94"/>
<path d="M422.614 84.5744C423.034 88.9243 424.342 91.2267 428.123 91.1646C424.365 91.3361 423.034 88.9243 422.614 84.5744Z" fill="#A12421"/>
<path d="M431.086 67.0202C430.86 67.4671 430.511 68.0839 430.139 68.5937C419.953 84.7504 424.724 89.34 426.696 91.172C423.046 91.2281 421.761 88.8674 421.38 84.7192C421.065 80.892 424.363 73.7607 426.724 69.0149C427.162 68.8261 427.747 68.5744 428.331 68.3227C429.04 67.9011 430.063 67.4606 431.086 67.0202Z" fill="#284D76"/>
<path d="M426.026 67.1131C423.439 68.2912 421.243 69.3065 421.243 69.3065C421.243 69.3065 420.709 63.4947 425.864 61.0461C427.669 60.1938 428.981 60.3516 429.941 60.8569C431.73 61.9218 432.264 64.415 432.264 64.415C430.81 64.9198 428.223 66.0979 426.026 67.1131Z" fill="#426790"/>
<path d="M422.027 64.8079C421.145 67.0528 421.286 69.1866 421.286 69.1866C421.286 69.1866 421.008 67.1119 422.027 64.8079ZM426.445 60.1617C426.308 60.2208 426.308 60.2208 426.171 60.2798C424.271 61.2077 423.066 62.6047 422.314 64.026C423.066 62.6047 424.271 61.2077 426.171 60.2798C426.171 60.2798 426.308 60.2208 426.445 60.1617Z" fill="#357D3F"/>
<path d="M422.416 63.6759C422.318 63.9441 422.199 64.1087 422.101 64.377C422.058 64.1695 422.178 64.005 422.416 63.6759Z" fill="#09582E"/>
<path d="M426.19 60.7469C427.903 60.0257 429.096 60.2433 430.066 60.7607C429.519 60.8882 429.124 61.0546 428.597 61.2765C425.436 62.6079 423.404 65.2126 426.09 67.0649C423.476 68.2689 421.256 69.3065 421.256 69.3065C421.256 69.3065 421.121 67.3059 421.967 65.2005C422.059 64.956 422.17 64.8061 422.262 64.5616C422.985 63.2285 424.142 61.9179 425.967 61.0468C425.927 60.8578 426.058 60.8024 426.19 60.7469Z" fill="#1D426B"/>
<path d="M436.482 80.5154C436.623 80.4544 436.764 80.3934 436.764 80.3934C437.816 80.2783 438.256 81.6732 437.871 83.538C437.443 85.1949 436.387 86.7838 435.399 87.2109C435.258 87.2719 435.116 87.3329 435.116 87.3329C434.064 87.4479 433.624 86.0531 434.009 84.1883C434.416 82.4274 435.494 80.9425 436.482 80.5154Z" fill="#7197C1"/>
<path d="M45.9662 36.9824C43.5985 40.8453 40.8571 45.7052 40.4832 49.319C40.1094 54.0543 40.7325 57.0449 43.5985 58.6649C44.7201 59.288 46.0908 59.6618 47.8354 59.911C48.0846 59.911 48.4584 59.911 48.7077 59.911C52.6952 59.911 56.309 56.5465 56.8075 50.4405C57.0567 46.8267 54.9383 41.2192 52.9445 36.9824C59.1751 38.8516 63.6611 44.8329 63.6611 51.8112C63.6611 60.2849 57.3059 67.1385 49.3307 67.1385C41.4801 67.1385 35.0003 60.2849 35.0003 51.8112C35.0003 44.7083 39.7356 38.6023 45.9662 36.9824Z" fill="#C3DCF7"/>
<path d="M40.608 49.319C41.1064 42.8391 49.7047 31.7486 49.8293 31.2502C49.9539 30.7517 57.4306 44.0852 56.9322 50.5651C56.4338 57.0449 52.3215 60.5341 47.9601 59.911C41.3557 59.1633 40.1095 55.7988 40.608 49.319Z" fill="#8EABCB"/>
<path d="M40.6078 49.319C40.234 54.0543 40.8571 57.045 43.7231 58.6649C40.8571 57.1696 40.234 54.0543 40.6078 49.319Z" fill="#177B88"/>
<path d="M51.1997 34.864C50.9505 35.2378 50.5766 35.7363 50.2028 36.1101C39.4861 48.6959 42.6015 55.9235 43.723 58.7895C40.8569 57.1696 40.2338 54.0543 40.6077 49.4436C40.9815 45.2068 44.7199 39.1008 47.3367 35.1132C47.7106 35.1132 48.209 35.1132 48.7075 35.1132C49.4551 34.9886 50.3274 34.864 51.1997 34.864Z" fill="#466283"/>
<path d="M48.7076 34.9886C46.2153 35.1132 44.0969 35.2378 44.0969 35.2378C44.0969 35.2378 44.72 27.8857 49.7045 27.5118C51.449 27.3872 52.5706 28.2595 53.3182 29.381C54.689 31.624 54.689 34.864 54.689 34.864C53.3182 34.864 50.826 34.864 48.7076 34.9886Z" fill="#496686"/>
<path d="M44.9691 31.4994C44.2214 33.3686 44.0968 35.1132 44.0968 35.1132C44.0968 35.1132 44.2214 33.3686 44.9691 31.4994ZM49.9536 27.5118C49.829 27.5118 49.829 27.5118 49.7044 27.5118C47.3368 27.6364 45.966 29.381 45.0937 31.1256C45.8414 29.381 47.3368 27.6364 49.7044 27.5118C49.7044 27.5118 49.829 27.5118 49.9536 27.5118Z" fill="#357D3F"/>
<path d="M45.0938 31.1256C45.0938 31.2502 44.9691 31.3748 44.9691 31.4994C44.9691 31.3748 45.0938 31.2502 45.0938 31.1256Z" fill="#09582E"/>
<path d="M49.9538 27.5119C51.3246 27.5119 52.3215 28.1349 52.9445 29.0072C53.0691 29.1318 53.1937 29.2564 53.3184 29.5056C52.8199 29.381 52.4461 29.381 51.9476 29.381C48.9569 29.381 46.7139 31.4994 48.7077 35.1132C46.2155 35.2378 44.097 35.3624 44.097 35.3624C44.097 35.3624 44.2217 33.6179 44.9693 31.7487C44.9693 31.6241 45.0939 31.4994 45.0939 31.3748C45.8416 29.6303 47.337 27.8857 49.7046 27.7611C49.7046 27.5118 49.8292 27.5119 49.9538 27.5119Z" fill="#244161"/>
<path d="M54.3152 49.5682C54.4398 49.5682 54.5644 49.5682 54.5644 49.5682C55.4367 49.9421 55.5613 51.6866 54.9382 53.5558C54.3152 55.3004 53.3183 56.5465 52.446 56.5465C52.3214 56.5465 52.1968 56.5465 52.1968 56.5465C51.3245 56.1727 51.1999 54.4281 51.8229 52.5589C52.446 50.8143 53.5675 49.5682 54.3152 49.5682Z" fill="#C1E3F6"/>
<path d="M899.966 114.982C897.599 118.845 894.857 123.705 894.483 127.319C894.109 132.054 894.732 135.045 897.599 136.665C898.72 137.288 900.091 137.662 901.835 137.911C902.085 137.911 902.458 137.911 902.708 137.911C906.695 137.911 910.309 134.547 910.807 128.44C911.057 124.827 908.938 119.219 906.944 114.982C913.175 116.852 917.661 122.833 917.661 129.811C917.661 138.285 911.306 145.139 903.331 145.139C895.48 145.139 889 138.285 889 129.811C889 122.708 893.736 116.602 899.966 114.982Z" fill="#A7CDF7"/>
<path d="M894.608 127.319C895.106 120.839 903.705 109.749 903.829 109.25C903.954 108.752 911.431 122.085 910.932 128.565C910.434 135.045 906.322 138.534 901.96 137.911C895.356 137.163 894.11 133.799 894.608 127.319Z" fill="#7FAEE3"/>
<path d="M894.608 127.319C894.234 132.054 894.857 135.045 897.723 136.665C894.857 135.17 894.234 132.054 894.608 127.319Z" fill="#177B88"/>
<path d="M905.2 112.864C904.95 113.238 904.577 113.736 904.203 114.11C893.486 126.696 896.601 133.923 897.723 136.79C894.857 135.17 894.234 132.054 894.608 127.444C894.981 123.207 898.72 117.101 901.337 113.113C901.711 113.113 902.209 113.113 902.707 113.113C903.455 112.989 904.327 112.864 905.2 112.864Z" fill="#356499"/>
<path d="M902.708 112.989C900.215 113.113 898.097 113.238 898.097 113.238C898.097 113.238 898.72 105.886 903.704 105.512C905.449 105.387 906.571 106.26 907.318 107.381C908.689 109.624 908.689 112.864 908.689 112.864C907.318 112.864 904.826 112.864 902.708 112.989Z" fill="#3A699E"/>
<path d="M898.969 109.499C898.221 111.369 898.097 113.113 898.097 113.113C898.097 113.113 898.221 111.369 898.969 109.499ZM903.954 105.512C903.829 105.512 903.829 105.512 903.704 105.512C901.337 105.636 899.966 107.381 899.094 109.126C899.841 107.381 901.337 105.636 903.704 105.512C903.704 105.512 903.829 105.512 903.954 105.512Z" fill="#357D3F"/>
<path d="M899.094 109.126C899.094 109.25 898.969 109.375 898.969 109.499C898.969 109.375 899.094 109.25 899.094 109.126Z" fill="#09582E"/>
<path d="M903.954 105.512C905.325 105.512 906.321 106.135 906.945 107.007C907.069 107.132 907.194 107.256 907.318 107.506C906.82 107.381 906.446 107.381 905.948 107.381C902.957 107.381 900.714 109.499 902.708 113.113C900.215 113.238 898.097 113.362 898.097 113.362C898.097 113.362 898.222 111.618 898.969 109.749C898.969 109.624 899.094 109.499 899.094 109.375C899.842 107.63 901.337 105.886 903.705 105.761C903.705 105.512 903.829 105.512 903.954 105.512Z" fill="#154479"/>
<path d="M908.315 127.568C908.44 127.568 908.564 127.568 908.564 127.568C909.437 127.942 909.561 129.687 908.938 131.556C908.315 133.3 907.318 134.547 906.446 134.547C906.321 134.547 906.197 134.547 906.197 134.547C905.324 134.173 905.2 132.428 905.823 130.559C906.446 128.814 907.567 127.568 908.315 127.568Z" fill="#C1E3F6"/>
<path d="M254.764 52.7046C251.838 54.7593 248.542 57.3084 247.819 59.8977C247.044 62.7864 246.942 65.0855 248.454 67.1598C248.79 67.7152 249.412 68.2751 249.899 68.7829C251.025 69.7509 252.454 70.6235 254.302 71.5528C254.571 71.657 254.975 71.8134 255.244 71.9176C259.546 73.5856 263.901 72.4035 265.264 67.7235C265.938 65.4334 264.948 61.1167 263.588 57.2942C268.36 61.2702 271.283 66.8676 270.474 71.6563C269.462 78.4924 261.678 81.3212 253.072 77.9853C244.601 74.7016 238.536 66.5041 239.682 59.7201C240.71 53.6345 247.2 50.8355 254.764 52.7046Z" fill="#BBD8F7"/>
<path d="M247.967 58.4269C249.454 53.1325 260.785 47.5172 260.997 47.1483C261.351 46.8349 267.935 61.5126 266.448 66.807C264.962 72.1015 259.801 73.242 254.942 70.7708C247.556 67.1955 246.48 63.7214 247.967 58.4269Z" fill="#7FA0C6"/>
<path d="M248.458 68.9603C248.787 69.4955 249.396 70.035 249.873 70.5243C249.396 70.035 248.919 69.5457 248.458 68.9603Z" fill="#458736"/>
<path d="M262.654 51.3772C262.307 51.5897 261.795 51.854 261.302 52.0094C247.036 58.1557 249.496 65.7286 250.535 68.8024C249.86 68.1907 249.33 67.6361 248.966 67.0296C247.324 64.7644 247.435 62.2557 248.277 59.1043C249.339 55.5746 254.619 51.9519 258.273 49.6664C258.711 49.8374 259.295 50.0655 259.879 50.2937C260.737 50.7447 261.778 51.035 262.654 51.3772Z" fill="#3B5C82"/>
<path d="M260.528 47.6732C257.9 46.7824 255.664 46.0394 255.664 46.0394C255.664 46.0394 257.301 40.6491 262.557 42.4305C264.402 43.0259 265.462 44.1266 266.098 45.2674C267.239 47.4999 266.813 49.9424 266.813 49.9424C265.376 49.4009 262.895 48.4654 260.528 47.6732Z" fill="#45668C"/>
<path d="M256.913 43.8744C256.023 44.9658 255.693 46.0661 255.693 46.0661C255.693 46.0661 256.023 44.9658 256.913 43.8744ZM262.891 42.5761C264.603 43.2285 265.541 44.3011 266.183 45.4651C265.689 44.2554 264.603 43.2285 262.891 42.5761C262.759 42.5259 262.759 42.5259 262.628 42.4757C259.845 41.5178 258.132 42.4998 257.078 43.7328C258.116 42.5957 259.845 41.5178 262.628 42.4757C262.759 42.5259 262.891 42.5761 262.891 42.5761Z" fill="#357D3F"/>
<path d="M262.882 42.5879C264.599 43.2435 265.539 44.3217 266.182 45.4917C265.67 45.1936 265.274 45.0423 264.746 44.8406C261.578 43.6302 258.92 44.3609 260.552 47.9631C257.895 47.0508 255.634 46.2898 255.634 46.2898C255.634 46.2898 255.965 45.1836 256.857 44.0864C257.22 44.4305 257.582 44.7745 257.813 45.0682C257.599 44.6781 257.385 44.2881 257.038 43.8477C258.079 42.7045 259.813 41.6207 262.602 42.5834C262.75 42.5374 262.882 42.5879 262.882 42.5879Z" fill="#204167"/>
<path d="M262.171 64.7173C262.312 64.7726 262.453 64.828 262.453 64.828C263.388 65.533 263.281 67.0707 262.311 68.3822C261.375 69.482 259.929 70.0428 258.941 69.6554C258.8 69.6001 258.659 69.5447 258.659 69.5447C257.725 68.8397 257.831 67.302 258.802 65.9904C259.737 64.8907 261.184 64.3299 262.171 64.7173Z" fill="#A8C9EF"/>
<path d="M821.154 101.497C818.229 103.552 814.933 106.101 814.209 108.69C813.434 111.579 813.332 113.878 814.844 115.953C815.18 116.508 815.802 117.068 816.289 117.576C817.415 118.544 818.844 119.416 820.693 120.345C820.961 120.45 821.365 120.606 821.634 120.71C825.936 122.378 830.291 121.196 831.654 116.516C832.328 114.226 831.338 109.909 829.978 106.087C834.75 110.063 837.673 115.66 836.864 120.449C835.852 127.285 828.068 130.114 819.463 126.778C810.992 123.494 804.927 115.297 806.073 108.513C807.101 102.427 813.591 99.6282 821.154 101.497Z" fill="#A9CEF7"/>
<path d="M814.357 107.22C815.844 101.925 827.175 96.3098 827.387 95.9409C827.741 95.6275 834.326 110.305 832.839 115.6C831.352 120.894 826.191 122.035 821.332 119.563C813.947 115.988 812.87 112.514 814.357 107.22Z" fill="#74A2D5"/>
<path d="M814.848 117.753C815.177 118.288 815.786 118.828 816.263 119.317C815.786 118.828 815.309 118.338 814.848 117.753Z" fill="#458736"/>
<path d="M829.044 100.17C828.697 100.382 828.185 100.647 827.692 100.802C813.427 106.948 815.886 114.521 816.925 117.595C816.25 116.983 815.721 116.429 815.356 115.822C813.714 113.557 813.825 111.048 814.668 107.897C815.729 104.367 821.009 100.744 824.663 98.459C825.101 98.63 825.685 98.8581 826.269 99.0862C827.127 99.5373 828.168 99.8276 829.044 100.17Z" fill="#315E91"/>
<path d="M826.918 96.4658C824.29 95.575 822.054 94.832 822.054 94.832C822.054 94.832 823.691 89.4417 828.947 91.2232C830.792 91.8185 831.852 92.9192 832.488 94.06C833.629 96.2925 833.203 98.735 833.203 98.735C831.767 98.1935 829.285 97.258 826.918 96.4658Z" fill="#3B689B"/>
<path d="M823.303 92.6671C822.413 93.7585 822.083 94.8589 822.083 94.8589C822.083 94.8589 822.413 93.7585 823.303 92.6671ZM829.281 91.3688C830.993 92.0212 831.931 93.0938 832.573 94.2578C832.08 93.0481 830.993 92.0212 829.281 91.3688C829.15 91.3187 829.15 91.3187 829.018 91.2685C826.236 90.3105 824.522 91.2926 823.468 92.5255C824.506 91.3884 826.236 90.3105 829.018 91.2685C829.15 91.3187 829.281 91.3688 829.281 91.3688Z" fill="#357D3F"/>
<path d="M829.272 91.3805C830.989 92.0361 831.929 93.1143 832.572 94.2843C832.06 93.9862 831.664 93.8349 831.136 93.6332C827.968 92.4228 825.31 93.1535 826.942 96.7557C824.285 95.8434 822.024 95.0824 822.024 95.0824C822.024 95.0824 822.355 93.9762 823.247 92.879C823.61 93.2231 823.973 93.5671 824.203 93.8608C823.989 93.4707 823.775 93.0807 823.428 92.6403C824.469 91.4971 826.203 90.4133 828.992 91.376C829.14 91.33 829.272 91.3805 829.272 91.3805Z" fill="#174477"/>
<path d="M828.561 113.51C828.702 113.565 828.844 113.621 828.844 113.621C829.778 114.326 829.671 115.863 828.701 117.175C827.766 118.275 826.319 118.835 825.332 118.448C825.191 118.393 825.049 118.337 825.049 118.337C824.115 117.632 824.222 116.095 825.192 114.783C826.127 113.683 827.574 113.122 828.561 113.51Z" fill="#9DCBFE"/>
<path d="M367.458 60.8313C369.923 57.411 372.53 53.0416 372.834 49.7063C373.435 43.5146 372.088 40.1809 365.372 38.9804C365.118 38.9622 364.737 38.9349 364.483 38.9167C360.422 38.6258 356.692 41.5959 356.097 47.4282C355.796 50.524 357.501 55.442 359.347 59.411C354.176 56.8824 350.447 51.3398 350.539 45.2316C350.661 37.0873 357.233 30.9637 365.356 31.5456C373.352 32.1184 379.853 39.1785 379.731 47.3228C379.623 54.5089 374.329 60.1246 367.458 60.8313Z" fill="#BAD6F7"/>
<path d="M372.94 50.0784C372.332 56.3626 363.31 66.5446 363.174 67.0216C362.91 67.4894 355.4 53.9289 356.008 47.6447C356.616 41.3605 360.905 38.2614 365.39 39.1922C372.187 40.2891 373.55 43.6727 372.94 50.0784Z" fill="#90B4DC"/>
<path d="M361.697 63.3089C361.962 62.9608 362.358 62.4997 362.752 62.1609C373.946 50.6054 370.942 43.4158 369.689 40.5118C372.644 42.3143 373.246 45.4163 372.788 50.033C372.337 54.1608 368.361 59.8712 365.583 63.5874C365.194 63.5596 364.676 63.5224 364.158 63.4853C363.383 63.3073 362.476 63.2424 361.697 63.3089Z" fill="#4F729B"/>
<path d="M364.136 63.9312C366.661 63.9924 368.808 64.0268 368.808 64.0268C368.808 64.0268 368.072 70.9344 363.019 70.9297C361.25 70.9221 360.127 70.0167 359.386 68.9024C358.03 66.6829 358.077 63.6191 358.077 63.6191C359.339 63.7087 361.862 63.8878 364.136 63.9312Z" fill="#43678F"/>
<path d="M362.756 70.9082C361.112 70.7909 360.112 69.8878 359.37 68.7652C359.874 68.92 360.253 68.9471 360.759 68.9831C363.794 69.1995 366.101 67.3437 364.13 63.7566C366.661 63.8182 368.812 63.8528 368.812 63.8528C368.812 63.8528 368.659 65.6245 367.873 67.3512C367.871 67.4699 367.743 67.5796 367.741 67.6983C366.957 69.3062 365.415 70.8601 363.137 70.8165C362.882 70.9172 362.756 70.9082 362.756 70.9082Z" fill="#1E426A"/>
<path d="M358.968 48.8311C358.84 48.8219 358.711 48.8126 358.711 48.8126C357.817 48.383 357.714 46.6706 358.384 44.8919C359.052 43.2349 360.227 42.1015 360.998 42.1569C361.127 42.1662 361.255 42.1754 361.255 42.1754C362.149 42.605 362.252 44.3174 361.582 46.0961C361.043 47.7623 359.868 48.8957 358.968 48.8311Z" fill="#B8D9FF"/>
<path d="M494.526 43.9028C494.439 48.0908 494.485 52.7747 495.895 55.5554C497.574 59.328 499.407 61.5873 501.998 62.1384C503.463 62.4619 505.29 62.1553 507.479 61.2186C507.696 61.097 508.023 60.9148 508.24 60.7933C511.722 58.8491 513.237 54.1496 510.695 48.5755C509.333 45.6252 505.501 42.3415 501.973 39.6018C508.071 38.7654 514.456 41.7651 517.737 47.6401C521.868 55.0384 519.661 64.1208 512.698 68.0092C505.844 71.8369 496.845 69.0124 492.714 61.6141C489.372 55.6303 490.215 48.4511 494.526 43.9028Z" fill="#BAD8F8"/>
<path d="M495.847 55.725C493.123 49.8245 495.223 35.9493 495.089 35.4534C494.954 34.9574 507.983 42.9534 510.707 48.8538C513.54 54.6936 511.59 59.6361 507.54 61.3274C501.409 63.8947 498.572 61.6255 495.847 55.725Z" fill="#87ADD8"/>
<path d="M494.526 43.9028C494.439 48.0908 494.485 52.7747 495.895 55.5554C497.574 59.328 499.406 61.5873 501.998 62.1384C499.298 61.6481 497.574 59.328 495.895 55.5554C494.485 52.7747 494.33 48.1516 494.526 43.9028Z" fill="#177B88"/>
<path d="M498.047 37.9402C498.012 38.3881 497.929 39.0055 497.785 39.5142C494.673 55.667 500.747 60.4103 503.233 62.3051C502.785 62.2698 502.507 62.2825 502.059 62.2472C499.358 61.7569 497.635 59.4368 495.956 55.6642C494.655 52.8228 494.439 48.0908 494.587 44.0116C494.632 42.5591 494.738 41.2154 494.796 40.0412C495.123 39.8589 495.558 39.6159 495.993 39.3729C496.633 38.73 497.395 38.3047 498.047 37.9402Z" fill="#3C628D"/>
<path d="M495.872 39.1554C493.756 40.4793 491.968 41.621 491.968 41.621C491.968 41.621 488.927 34.8981 493.097 32.1415C494.559 31.1821 495.963 31.3969 497.163 32.0115C499.453 33.3015 501.033 36.1303 501.033 36.1303C499.836 36.7986 497.83 38.0618 495.872 39.1554Z" fill="#406792"/>
<path d="M493.314 32.0198C494.728 31.23 496.024 31.5055 497.224 32.1202C496.728 32.2544 496.401 32.4367 495.966 32.6797C493.355 34.1378 492.429 37.081 495.932 39.264C493.817 40.588 492.028 41.7296 492.028 41.7296C492.028 41.7296 491.226 40.0369 490.967 38.0404C490.906 37.9316 490.954 37.7621 490.894 37.6533C490.696 35.7656 491.151 33.5133 493.157 32.2501C493.205 32.0806 493.314 32.0198 493.314 32.0198Z" fill="#1C426D"/>
<path d="M508.045 49.1986C508.154 49.1379 508.263 49.0771 508.263 49.0771C509.207 48.9782 510.166 50.4406 510.534 52.3764C510.84 54.2033 510.408 55.7293 509.646 56.1546C509.537 56.2154 509.429 56.2761 509.429 56.2761C508.485 56.375 507.525 54.9126 507.158 52.9769C506.851 51.1499 507.284 49.6239 508.045 49.1986Z" fill="#C1E3F6"/>
<path d="M660.944 64.2167C667.05 65.8367 671.661 71.8181 671.661 78.921C671.661 87.3946 665.306 94.2483 657.331 94.2483C649.48 94.2483 643 87.3946 643 78.921C643 72.3165 646.863 66.709 652.346 64.5906C650.228 68.0797 648.109 72.1919 647.86 75.3072C647.86 75.6811 647.86 75.9303 647.86 76.3041C647.86 76.3041 647.86 76.3041 647.86 76.4287C647.736 80.2917 648.483 82.9086 651.1 84.4039C652.222 85.027 653.592 85.4008 655.337 85.65C655.586 85.65 655.96 85.65 656.209 85.65C660.197 85.65 663.811 82.2855 664.309 76.1795C664.558 73.3134 662.814 68.3289 660.944 64.2167Z" fill="#B5D5F8"/>
<path d="M647.86 75.4319C648.359 68.952 656.957 57.8615 657.082 57.3631C657.331 56.8646 664.808 70.0735 664.309 76.678C663.811 83.1578 659.699 86.647 655.337 86.0239C648.733 85.2762 647.362 81.9117 647.86 75.4319Z" fill="#78A1D0"/>
<path d="M647.86 76.9272C647.736 80.7901 648.483 83.407 651.1 84.9023C648.483 83.407 647.736 80.7901 647.86 76.9272ZM647.86 76.8025C647.86 76.9272 647.86 76.9272 647.86 76.8025C647.86 76.9272 647.86 76.9272 647.86 76.8025ZM647.86 76.6779C647.86 76.6779 647.86 76.8025 647.86 76.6779C647.86 76.8025 647.86 76.6779 647.86 76.6779Z" fill="#458736"/>
<path d="M658.452 60.9768C658.203 61.3506 657.829 61.849 657.455 62.2229C646.863 74.8087 649.854 81.9116 651.1 84.7777C648.483 83.2824 647.735 80.7901 647.86 76.8025C647.86 76.8025 647.86 76.8025 647.86 76.6779C647.86 76.3041 647.86 76.0548 647.86 75.681C648.234 71.4442 651.972 65.3382 654.589 61.3506C654.963 61.3506 655.461 61.3506 655.96 61.3506C656.832 60.9768 657.704 60.9768 658.452 60.9768Z" fill="#345D8C"/>
<path d="M655.96 61.1015C653.468 61.2261 651.349 61.3507 651.349 61.3507C651.349 61.3507 651.972 53.9986 656.957 53.6247C658.701 53.5001 659.823 54.3724 660.571 55.4939C661.941 57.7369 661.941 60.9769 661.941 60.9769C660.695 60.8523 658.203 60.9769 655.96 61.1015Z" fill="#3F6897"/>
<path d="M652.097 57.9862C651.474 59.7307 651.349 61.2261 651.349 61.2261C651.349 61.2261 651.474 59.7307 652.097 57.9862ZM657.331 53.5001C657.206 53.5001 657.206 53.5001 657.081 53.5001C654.464 53.6247 653.094 55.6185 652.346 57.6123C653.094 55.7431 654.464 53.6247 657.081 53.5001C657.081 53.5001 657.206 53.5001 657.331 53.5001Z" fill="#357D3F"/>
<path d="M657.331 53.5001C658.951 53.5001 659.948 54.3724 660.695 55.4939C660.197 55.3693 659.823 55.3693 659.325 55.3693C656.334 55.3693 654.091 57.4877 656.085 61.1015C653.717 61.2261 651.474 61.3507 651.474 61.3507C651.474 61.3507 651.599 59.8554 652.222 58.1108C652.596 58.36 652.969 58.6092 653.219 58.8585C652.969 58.4846 652.72 58.1108 652.346 57.7369C653.094 55.8678 654.465 53.7494 657.082 53.6247C657.082 53.5001 657.206 53.5001 657.331 53.5001Z" fill="#194371"/>
<path d="M661.692 75.6811C661.817 75.6811 661.941 75.6811 661.941 75.6811C662.814 76.0549 662.938 77.7995 662.315 79.6687C661.692 81.4133 660.571 82.5348 659.823 82.5348C659.698 82.5348 659.574 82.5348 659.574 82.5348C658.701 82.161 658.577 80.4164 659.2 78.5472C659.823 76.8026 660.82 75.6811 661.692 75.6811Z" fill="#A0CAFA"/>
<path d="M585.881 52.0045C582.582 53.6613 578.945 56.0189 577.96 58.5672C576.094 63.2816 576.865 66.5623 583.767 70.5111C584.033 70.6385 584.433 70.8295 584.699 70.9569C588.959 72.9949 593.513 72.2616 595.302 67.8339C596.236 65.4766 595.398 60.7626 594.222 56.7493C599.218 61.0806 602.084 67.1958 600.775 72.0695C599.031 78.5676 590.83 80.5755 582.31 76.4996C573.923 72.4873 568.411 63.9198 570.155 57.4216C571.695 51.6879 578.436 49.521 585.881 52.0045Z" fill="#B3D3F7"/>
<path d="M578.082 56.9632C580.051 51.9364 592.146 47.5561 592.394 47.2165C592.783 46.9448 598.311 61.9247 596.342 66.9515C594.373 71.9783 588.983 72.5891 584.205 69.7014C576.9 65.5906 576.086 62.0919 578.082 56.9632Z" fill="#8DB5E2"/>
<path d="M593.833 51.5326C593.459 51.7068 592.912 51.9158 592.394 52.02C577.244 56.6492 579.129 64.2968 579.936 67.4048C576.965 64.4344 576.939 61.4668 578.437 57.6977C579.823 54.3474 585.544 51.3154 589.484 49.4338C589.919 49.6436 590.499 49.9235 591.078 50.2033C591.92 50.7278 592.935 51.2175 593.833 51.5326Z" fill="#4B73A0"/>
<path d="M591.809 47.3864C589.204 46.2715 586.985 45.3373 586.985 45.3373C586.985 45.3373 589.099 40.3155 594.335 42.4552C596.166 43.2087 597.153 44.3825 597.703 45.5561C598.675 47.8429 598.027 50.1887 598.027 50.1887C596.737 49.5861 594.156 48.3809 591.809 47.3864Z" fill="#406895"/>
<path d="M594.67 42.6459C596.368 43.448 597.236 44.5889 597.793 45.7914C597.296 45.4522 596.904 45.2671 596.382 45.0203C593.247 43.5396 590.469 44.0012 591.828 47.6703C589.191 46.5289 586.945 45.5725 586.945 45.5725C586.945 45.5725 589.084 40.4246 594.384 42.615C594.539 42.5842 594.67 42.6459 594.67 42.6459Z" fill="#1B4370"/>
<path d="M592.003 64.6077C592.144 64.6759 592.285 64.7441 592.285 64.7441C593.19 65.5284 592.951 67.0283 591.839 68.2212C590.754 69.3119 589.214 69.7206 588.368 69.3114C588.227 69.2432 588.086 69.175 588.086 69.175C587.181 68.3907 587.421 66.8908 588.533 65.6979C589.477 64.539 591.017 64.1303 592.003 64.6077Z" fill="#B8D9FF"/>
</svg>
