<svg width="213" height="233" viewBox="0 0 213 233" fill="none" xmlns="http://www.w3.org/2000/svg">
<path d="M0.5 199C20.5 197.667 72.1 185.6 118.5 148C164.9 110.4 197.5 34.3333 208 1" stroke="white"/>
<path d="M125.554 132.723C124.254 128.248 122.228 122.283 119.557 119.491C116.212 115.913 113.444 114.178 110.343 115.085C109.137 115.448 107.958 116.162 106.629 117.23C106.466 117.407 106.222 117.673 106.059 117.851C103.453 120.689 103.642 125.614 107.944 130.24C110.426 132.857 116.062 135.271 120.576 136.815C115.306 139.325 108.53 138.153 103.618 133.621C97.1952 127.695 96.1534 118.378 101.365 112.701C106.496 107.113 115.926 107.293 122.349 113.219C128.206 118.623 129.534 127.057 125.554 132.723Z" fill="#CDE1F9"/>
<path d="M119.413 119.431C123.969 124.274 126.738 138.028 127.032 138.461C127.246 138.983 112.352 135.015 107.796 130.172C103.24 125.329 103.283 120.009 106.583 117.364C111.434 113.222 114.857 114.588 119.413 119.431Z" fill="#526880"/>
<path d="M125.475 132.292C124.195 127.908 122.2 122.065 119.569 119.33C116.274 115.826 113.546 114.126 110.491 115.015C113.546 114.126 116.274 115.826 119.569 119.33C122.2 122.065 124.195 127.908 125.475 132.292Z" fill="#A12421"/>
<path d="M123.492 136.798C123.373 136.365 123.241 135.758 123.202 135.238C120.61 119.111 113.249 116.224 110.385 115.207C113.456 114.312 116.197 116.024 119.51 119.555C122.155 122.31 124.16 128.197 125.447 132.613C125.66 133.132 125.699 133.653 125.912 134.172C125.67 134.435 125.347 134.785 125.025 135.135C124.541 135.66 123.976 136.273 123.492 136.798Z" fill="#354A62"/>
<path d="M124.699 134.779C126.242 132.905 127.539 131.299 127.539 131.299C127.539 131.299 132.732 136.923 129.742 140.758C128.691 142.096 127.289 142.286 125.943 142.032C123.333 141.435 120.864 139.154 120.864 139.154C121.86 138.259 123.321 136.475 124.699 134.779Z" fill="#4F647C"/>
<path d="M129.679 140.998C128.617 142.156 127.3 142.256 125.957 142.003C126.379 141.734 126.624 141.467 126.951 141.11C128.911 138.973 128.771 135.882 124.716 134.77C126.255 132.901 127.549 131.299 127.549 131.299C127.549 131.299 129.281 133.227 130.156 135.517C130.264 135.781 130.277 135.957 130.385 136.221C130.761 137.72 130.702 139.31 129.653 140.645C129.761 140.909 129.679 140.998 129.679 140.998Z" fill="#2A3F57"/>
<path d="M110.236 129.313C110.155 129.401 110.075 129.489 110.075 129.489C109.227 129.845 107.832 128.723 106.828 126.988C106.013 125.425 105.803 123.769 106.369 123.153C106.45 123.066 106.531 122.978 106.531 122.978C107.379 122.621 108.774 123.743 109.777 125.479C110.593 127.042 110.803 128.697 110.236 129.313Z" fill="#7F94AC"/>
<path d="M72.8435 186.426C79.6653 184.226 86.0552 186.141 87.9045 191.48C90.1106 197.85 85.2338 206.558 76.8747 211.021C68.6461 215.415 60.0699 213.89 57.8638 207.52C56.1443 202.556 58.7333 196.179 63.9286 191.519C62.6167 195.327 61.4669 199.603 62.0168 202.084C62.1141 202.365 62.179 202.553 62.2763 202.834C62.2763 202.834 62.2763 202.834 62.3088 202.927C63.1839 205.901 64.6489 207.449 67.781 207.109C69.1188 206.949 70.6528 206.463 72.5463 205.674C72.8075 205.535 73.1993 205.325 73.4606 205.186C77.6401 202.954 80.5519 198.403 79.4846 193.534C78.9996 191.241 75.8733 188.47 72.8435 186.426Z" fill="#D1E3F9"/>
<path d="M60.9278 201.108C59.7008 195.627 66.1503 181.631 66.1511 181.158C66.2895 180.611 78.1657 186.721 79.4269 192.302C80.6539 197.782 77.0716 203.024 72.0862 205.125C64.5907 208.463 62.1548 206.588 60.9278 201.108Z" fill="#899EB6"/>
<path d="M63.3042 201.93C64.2686 205.214 65.8814 206.922 69.3281 206.541C65.8814 206.922 64.2686 205.214 63.3042 201.93ZM63.2685 201.826C63.3042 201.93 63.3042 201.93 63.2685 201.826C63.3042 201.93 63.3042 201.93 63.2685 201.826ZM63.2328 201.723C63.2328 201.723 63.2685 201.826 63.2328 201.723C63.2685 201.826 63.2328 201.723 63.2328 201.723Z" fill="#458736"/>
<path d="M69.3638 182.4C69.1861 182.86 68.9019 183.498 68.5825 184.034C60.0973 200.859 65.5057 204.86 67.7328 206.45C64.3347 206.825 62.78 205.237 61.7944 201.886C61.7944 201.886 61.7944 201.886 61.7592 201.783C61.6535 201.476 61.583 201.272 61.4773 200.965C60.7046 197.257 63.2291 189.952 65.0772 185.074C65.5022 184.845 66.069 184.54 66.6357 184.234C67.5218 183.393 68.5136 182.858 69.3638 182.4Z" fill="#455A72"/>
<path d="M64.3584 182.79C61.8557 184.205 59.7331 185.421 59.7331 185.421C59.7331 185.421 58.5084 179.844 63.4823 176.925C65.2247 175.908 66.5856 175.934 67.6293 176.336C69.59 177.207 70.4089 179.519 70.4089 179.519C69.1103 180.093 66.6076 181.508 64.3584 182.79Z" fill="#4F647C"/>
<path d="M59.7263 182.372C59.5233 184.079 59.7873 185.306 59.7873 185.306C59.7873 185.306 59.5233 184.079 59.7263 182.372ZM64.1325 175.896C63.9992 175.968 63.9992 175.968 63.8659 176.039C61.1 177.641 60.1635 179.97 59.8935 181.94C60.1967 180.066 61.1 177.641 63.8659 176.039C63.8659 176.039 63.9992 175.968 64.1325 175.896Z" fill="#357D3F"/>
<path d="M63.878 176.459C65.5453 175.578 66.7945 175.672 67.8508 176.084C67.3059 176.265 66.9211 176.468 66.4081 176.739C63.33 178.365 61.5631 181.131 64.5394 182.685C62.1344 184.063 59.8576 185.374 59.8576 185.374C59.8576 185.374 59.6035 184.215 59.7986 182.603C60.2471 182.581 60.6956 182.56 61.0159 182.606C60.6638 182.469 60.3116 182.332 59.8313 182.262C60.1228 180.491 60.9918 178.2 63.6533 176.685C63.6215 176.594 63.7497 176.527 63.878 176.459Z" fill="#2A3F57"/>
<path d="M76.1848 195.025C76.3226 194.951 76.4603 194.877 76.4603 194.877C77.5275 194.655 78.1445 195.979 77.9691 197.848C77.7595 199.618 76.8276 201.186 76.001 201.632C75.8632 201.707 75.7254 201.781 75.7254 201.781C74.6583 202.002 74.0413 200.679 74.2167 198.809C74.4263 197.04 75.2204 195.546 76.1848 195.025Z" fill="#B2C7DF"/>
<path d="M181.079 73.8906C181.244 78.2131 181.876 83.3398 183.667 86.026C186.963 91.0393 190.034 92.5218 195.975 88.5196C196.183 88.3482 196.495 88.0912 196.703 87.9198C200.032 85.178 201.121 80.2681 198.039 75.5244C196.391 73.0177 192.08 70.6246 188.235 69.0356C193.785 67.1394 200.046 68.5209 203.686 73.1016C208.54 79.2092 207.162 88.519 200.505 94.0026C193.952 99.4006 184.617 98.9161 179.763 92.8085C175.481 87.4194 176.176 79.4156 181.079 73.8906Z" fill="#CFE2F8"/>
<path d="M183.046 85.7941C179.692 80.6702 180.53 66.4572 180.345 66.0024C180.266 65.4601 194.393 70.028 197.748 75.1519C201.102 80.2758 199.643 85.7362 195.574 88.3424C189.6 92.525 186.474 91.0098 183.046 85.7941Z" fill="#9CB1CA"/>
<path d="M183.828 67.391C183.834 67.8462 183.807 68.4827 183.707 69.0264C182.031 85.9151 188.774 89.078 191.529 90.3263C188.119 91.1557 185.752 89.2795 183.286 85.4897C181.114 82.0708 180.726 74.8717 180.623 70.0456C180.944 69.7801 181.371 69.4262 181.798 69.0723C182.513 68.6341 183.261 68.0147 183.828 67.391Z" fill="#5B7088"/>
<path d="M180.948 68.8015C178.964 70.5744 177.289 72.0947 177.289 72.0947C177.289 72.0947 173.643 66.4641 177.54 62.8299C178.908 61.5624 180.326 61.4224 181.576 61.7116C183.975 62.3744 185.808 64.6701 185.808 64.6701C184.78 65.5124 182.726 67.197 180.948 68.8015Z" fill="#4F647C"/>
<path d="M177.772 62.6031C179.114 61.5003 180.436 61.4442 181.693 61.7355C181.209 61.9859 180.899 62.2404 180.486 62.5797C178.008 64.6156 177.355 67.6543 181.061 68.8758C179.067 70.6613 177.383 72.1924 177.383 72.1924C177.383 72.1924 173.719 66.5217 177.636 62.8617C177.668 62.688 177.772 62.6031 177.772 62.6031Z" fill="#728FAF"/>
<path d="M194.915 76.989C195.021 76.9013 195.127 76.8136 195.127 76.8136C196.087 76.4755 197.211 77.6747 197.772 79.492C198.261 81.2174 198.034 82.9258 197.398 83.452C197.292 83.5397 197.186 83.6274 197.186 83.6274C196.226 83.9655 195.102 82.7663 194.54 80.949C193.946 79.3113 194.173 77.6029 194.915 76.989Z" fill="#C2D7F0"/>
</svg>
