<svg width="40" height="40" viewBox="0 0 40 40" fill="none" xmlns="http://www.w3.org/2000/svg">
<path d="M0.895996 10.8915C0.895996 5.37693 5.36643 0.906494 10.881 0.906494H29.6989C35.2134 0.906494 39.6839 5.37693 39.6839 10.8915V29.7094C39.6839 35.2239 35.2134 39.6944 29.6989 39.6944H10.881C5.36643 39.6944 0.895996 35.2239 0.895996 29.7094V10.8915Z" fill="white"/>
<path fill-rule="evenodd" clip-rule="evenodd" d="M19.8018 35.3115C26.3909 35.3034 31.7242 29.9303 31.7188 23.3087C31.7134 16.6872 26.3694 11.322 19.783 11.3247C13.1939 11.3274 7.85522 16.6952 7.85522 23.3194C7.85792 26.5032 9.11645 29.5534 11.3559 31.8042C13.5954 34.0551 16.6353 35.3115 19.8018 35.3115Z" fill="#FCCA00"/>
<path fill-rule="evenodd" clip-rule="evenodd" d="M26.031 11.0911V22.2999C26.031 23.3959 25.9232 24.4411 25.7723 24.9624C24.9961 27.665 22.4332 29.4721 19.6036 29.3037C16.7766 29.1353 14.4455 27.0422 13.9981 24.2674C13.5535 21.4926 15.1138 18.7819 17.7495 17.7501C20.3851 16.7182 23.3872 17.6431 24.9719 19.9742C24.8856 19.5892 24.8344 19.1963 24.8236 18.8033V5.32764L32.6982 7.71749V13.1281L26.031 11.0911Z" fill="#FD3031"/>
</svg>
