<svg width="40" height="40" viewBox="0 0 40 40" fill="none" xmlns="http://www.w3.org/2000/svg">
<mask id="mask0" mask-type="alpha" maskUnits="userSpaceOnUse" x="0" y="0" width="40" height="40">
<path d="M0.424072 18.361C0.424072 11.0888 0.424072 7.45273 2.27603 4.90373C2.87413 4.08051 3.59808 3.35656 4.42131 2.75845C6.97031 0.906494 10.6064 0.906494 17.8786 0.906494H21.7574C29.0296 0.906494 32.6657 0.906494 35.2147 2.75845C36.0379 3.35656 36.7619 4.08051 37.36 4.90373C39.212 7.45273 39.212 11.0888 39.212 18.361V22.2398C39.212 29.512 39.212 33.1481 37.36 35.6971C36.7619 36.5204 36.0379 37.2443 35.2147 37.8424C32.6657 39.6944 29.0296 39.6944 21.7574 39.6944H17.8786C10.6064 39.6944 6.97031 39.6944 4.42131 37.8424C3.59808 37.2443 2.87413 36.5204 2.27603 35.6971C0.424072 33.1481 0.424072 29.512 0.424072 22.2398V18.361Z" fill="white"/>
</mask>
<g mask="url(#mask0)">
<rect x="0.424072" y="0.906494" width="38.7879" height="38.7879" fill="url(#paint0_linear)"/>
<path fill-rule="evenodd" clip-rule="evenodd" d="M19.1563 22.1223C20.1625 22.4885 21.275 21.9696 21.6412 20.9635C22.0075 19.9572 21.4887 18.8445 20.4824 18.4783C19.4762 18.1121 18.3637 18.6308 17.9975 19.6371C17.6312 20.6434 18.15 21.7561 19.1563 22.1223ZM11.0378 27.4206C13.0503 28.153 15.2755 27.1155 16.008 25.103C16.7406 23.0904 15.7029 20.8653 13.6904 20.1328C11.6781 19.4003 9.45288 20.4381 8.72042 22.4504C7.98775 24.4629 9.02547 26.6881 11.0378 27.4206ZM21.9696 31.3994C23.9819 32.1318 26.2071 31.0941 26.9397 29.0818C27.6722 27.0694 26.6345 24.8443 24.6221 24.1116C22.6096 23.3791 20.3844 24.4166 19.652 26.4292C18.9195 28.4417 19.957 30.6669 21.9696 31.3994ZM25.9483 20.4676C27.9606 21.2003 30.186 20.1625 30.9185 18.1502C31.651 16.1377 30.6134 13.9125 28.6009 13.18C26.5884 12.4476 24.3632 13.4851 23.6307 15.4976C22.8983 17.51 23.936 19.7353 25.9483 20.4676ZM15.0168 16.489C17.0291 17.2215 19.2545 16.1838 19.9867 14.1714C20.7194 12.1589 19.6817 9.93372 17.6691 9.20125C15.6568 8.46879 13.4316 9.50631 12.699 11.5189C11.9665 13.5314 13.0042 15.7566 15.0168 16.489ZM14.5144 34.8757C6.46444 31.9459 2.31398 23.045 5.24382 14.9952C8.17388 6.94549 17.0746 2.7948 25.1243 5.72487C33.1743 8.65471 37.3247 17.5554 34.3949 25.6054C31.465 33.6551 22.5641 37.8058 14.5144 34.8757Z" fill="#FEFEFE"/>
</g>
<defs>
<linearGradient id="paint0_linear" x1="12.7628" y1="39.6624" x2="26.8967" y2="0.874263" gradientUnits="userSpaceOnUse">
<stop stop-color="#FF6600"/>
<stop offset="1" stop-color="#FF9900"/>
</linearGradient>
</defs>
</svg>
