<svg width="184" height="39" viewBox="0 0 184 39" fill="none" xmlns="http://www.w3.org/2000/svg">
<path d="M91.4753 19.5126C91.4753 11.4324 91.4753 7.39225 93.5211 4.56002C94.1818 3.64533 94.9815 2.84094 95.8909 2.17638C98.7066 0.118652 102.723 0.118652 110.757 0.118652H164.315C172.349 0.118652 176.365 0.118652 179.181 2.17638C180.09 2.84094 180.89 3.64533 181.551 4.56002C183.597 7.39225 183.597 11.4324 183.597 19.5126V19.5126C183.597 27.5928 183.597 31.6329 181.551 34.4652C180.89 35.3799 180.09 36.1842 179.181 36.8488C176.365 38.9065 172.349 38.9065 164.315 38.9065H110.757C102.723 38.9065 98.7066 38.9065 95.8909 36.8488C94.9815 36.1842 94.1818 35.3799 93.5211 34.4652C91.4753 31.6329 91.4753 27.5928 91.4753 19.5126V19.5126Z" fill="url(#paint0_linear)"/>
<path fill-rule="evenodd" clip-rule="evenodd" d="M156.587 19.5127C156.607 20.6391 156.42 21.7597 156.035 22.8206C155.691 23.7205 155.169 24.5439 154.499 25.2428C153.849 25.9034 153.063 26.42 152.195 26.758C150.428 27.4101 148.486 27.4402 146.699 26.8434C145.898 26.5639 145.162 26.1284 144.535 25.5629C143.898 24.9702 143.374 24.2689 142.988 23.4928C142.564 22.6095 142.301 21.6596 142.21 20.6864H140.046V26.9821H136.649V12.0432H140.024V17.9654H142.242C142.36 17.0413 142.634 16.1432 143.053 15.3084C143.437 14.5658 143.963 13.9029 144.6 13.3557C145.234 12.82 145.97 12.4138 146.764 12.1606C147.59 11.8863 148.456 11.7492 149.328 11.7551C150.307 11.7476 151.278 11.9176 152.195 12.2566C153.064 12.5831 153.851 13.0929 154.499 13.7505C155.172 14.4516 155.694 15.279 156.035 16.1834C156.423 17.2508 156.61 18.379 156.587 19.5127ZM149.328 24.5065C149.843 24.5175 150.354 24.4149 150.824 24.2063C151.294 23.9977 151.71 23.6883 152.043 23.3007C152.743 22.1637 153.114 20.859 153.114 19.5287C153.114 18.1984 152.743 16.8936 152.043 15.7566C151.711 15.3676 151.295 15.0566 150.825 14.8462C150.355 14.6358 149.844 14.5313 149.328 14.5402C148.819 14.5295 148.315 14.6324 147.852 14.8412C147.389 15.05 146.98 15.3593 146.656 15.7459C145.962 16.887 145.595 18.1926 145.595 19.5233C145.595 20.854 145.962 22.1597 146.656 23.3007C146.981 23.6854 147.391 23.9927 147.853 24.1996C148.316 24.4066 148.82 24.5078 149.328 24.4958V24.5065Z" fill="white"/>
<path d="M121.243 17.8481C121.211 19.1238 121.07 20.3945 120.821 21.6468C120.686 22.2844 120.405 22.883 119.999 23.3968C119.845 23.5781 119.651 23.7222 119.431 23.8184C119.212 23.9145 118.973 23.9601 118.733 23.9517C118.586 23.9619 118.438 23.9619 118.29 23.9517V27.0568H119.199C120.169 27.1064 121.124 26.8111 121.892 26.2245C122.623 25.581 123.159 24.7498 123.439 23.8236C123.835 22.5765 124.075 21.2865 124.153 19.9822C124.272 18.4776 124.381 16.7277 124.381 14.7536H128.784V26.9608H132.17V12.0219H121.351C121.351 14.3374 121.319 16.2795 121.243 17.8481Z" fill="white"/>
<path d="M115.964 12.0436H103.112V26.9824H106.487V14.7539H112.578V26.9824H115.964V12.0436Z" fill="white"/>
<path d="M163.976 26.7261C165.018 27.0898 166.117 27.2704 167.222 27.2596C168.183 27.2851 169.142 27.1663 170.067 26.9075C170.731 26.705 171.367 26.4218 171.96 26.0645V23.3222C171.338 23.6756 170.678 23.9584 169.991 24.1651C169.162 24.4034 168.301 24.515 167.438 24.4959C164.377 24.4959 162.84 22.842 162.84 19.5127C162.84 16.1835 164.398 14.5296 167.525 14.5296C168.358 14.518 169.188 14.6221 169.991 14.839C170.687 15.0456 171.35 15.3473 171.96 15.7353V12.9716C171.387 12.5798 170.751 12.2874 170.078 12.1073C169.182 11.8682 168.258 11.7532 167.33 11.7659C166.196 11.751 165.069 11.9316 163.998 12.2994C163.063 12.6233 162.21 13.144 161.499 13.8253C160.799 14.5087 160.26 15.3357 159.919 16.2475C159.183 18.3638 159.183 20.6617 159.919 22.7779C160.26 23.6898 160.799 24.5167 161.499 25.2002C162.204 25.8789 163.049 26.3994 163.976 26.7261Z" fill="white"/>
<path d="M10.5787 20.7329V31.2731H13.5407V3.76855H9.11687C4.77001 3.76855 1.11557 6.65364 1.11557 12.4238C1.11557 16.5399 2.73121 18.771 5.15469 20.002L0 31.2731H3.42364L8.11671 20.7329H10.5787ZM10.5787 18.2709H9.00147C6.42413 18.2709 4.3084 16.8476 4.3084 12.4238C4.3084 7.84614 6.61646 6.26896 9.00147 6.26896H10.5787V18.2709Z" fill="black"/>
<path d="M43.233 28.8111H41.6943V11.8853H32.6928V13.5394C32.6928 18.6941 32.5005 24.6951 30.731 28.8111H29.5385V35.0814H32.2312V31.2731H40.5403V35.0814H43.233V28.8111ZM56.2736 29.9651L55.5812 27.6571C54.8118 28.1956 53.4655 28.965 51.7729 28.965C49.3879 28.965 48.1569 26.6569 48.1569 22.2716H56.2351V20.6175C56.2351 14.0395 54.1194 11.616 50.8881 11.616C46.7721 11.616 45.041 16.1552 45.041 22.387C45.041 28.3495 47.503 31.5423 51.5036 31.5423C53.427 31.5423 55.0426 30.9268 56.2736 29.9651ZM24.8454 11.8853V20.1174H20.3831V11.8853H17.3826V31.2731H20.3831V22.5793H24.8454V31.2731H27.8074V11.8853H24.8454ZM67.4293 31.2731H70.699L65.1981 21.0021L70.0066 11.8853H66.9677L62.3131 20.8483V11.8853H59.3126V31.2731H62.3131V21.6176L67.4293 31.2731ZM77.7387 31.5423C79.5082 31.5423 80.7391 30.9653 81.7778 30.0805L81.0854 27.8494C80.3929 28.4649 79.2774 29.0419 77.8156 29.0419C75.3921 29.0419 74.2381 26.2722 74.2381 21.4253C74.2381 16.5399 75.7768 14.1164 77.931 14.1164C79.162 14.1164 80.316 14.7704 81.1238 15.4628L81.547 12.6162C80.7007 12.0776 79.7005 11.616 77.9695 11.616C73.4303 11.616 71.0837 15.5012 71.0837 21.5792C71.0837 28.1956 73.5841 31.5423 77.7387 31.5423ZM38.7323 28.8111H33.5776C35.1932 24.6951 35.3856 18.7325 35.3856 14.6549V14.3087H38.7323V28.8111ZM50.8881 14.0779C52.6192 14.0779 53.1577 16.5014 53.1577 19.8096H48.1954C48.3877 16.3475 49.0417 14.0779 50.8881 14.0779Z" fill="black"/>
<defs>
<linearGradient id="paint0_linear" x1="93.5408" y1="4.68932" x2="176.132" y2="45.2058" gradientUnits="userSpaceOnUse">
<stop offset="0.0364583" stop-color="#48CCE0"/>
<stop offset="0.328125" stop-color="#505ADD"/>
<stop offset="0.640625" stop-color="#BE40C0"/>
<stop offset="0.958333" stop-color="#FBA82B"/>
</linearGradient>
</defs>
</svg>
